<svg xmlns:xlink="http://www.w3.org/1999/xlink" width="1026" xmlns="http://www.w3.org/2000/svg" height="1026" id="screenshot-6151ad18-bf59-804b-8002-30d55a431786" viewBox="-1 -1 1026 1026" style="-webkit-print-color-adjust: exact;" fill="none" version="1.1"><g id="shape-6151ad18-bf59-804b-8002-30d55a431786"><defs><clipPath class="frame-clip-def frame-clip" id="frame-clip-6151ad18-bf59-804b-8002-30d55a431786-rumext-id-1"><rect rx="0" ry="0" x="0" y="0" width="1024" height="1024" transform="matrix(1.000000, 0.000000, 0.000000, 1.000000, 0.000000, 0.000000)" style="fill: rgb(255, 255, 255); fill-opacity: 0;"/></clipPath></defs><g clip-path="url(#frame-clip-6151ad18-bf59-804b-8002-30d55a431786-rumext-id-1)"><clipPath class="frame-clip-def frame-clip" id="frame-clip-6151ad18-bf59-804b-8002-30d55a431786-rumext-id-1"><rect rx="0" ry="0" x="0" y="0" width="1024" height="1024" transform="matrix(1.000000, 0.000000, 0.000000, 1.000000, 0.000000, 0.000000)" style="fill: rgb(255, 255, 255); fill-opacity: 0;"/></clipPath><g class="fills" id="fills-6151ad18-bf59-804b-8002-30d55a431786"><rect width="1024" height="1024" class="frame-background" x="0" transform="matrix(1.000000, 0.000000, 0.000000, 1.000000, 0.000000, 0.000000)" style="fill: rgb(255, 255, 255); fill-opacity: 0;" ry="0" rx="0" y="0"/></g><g class="frame-children"><g id="shape-6151ad18-bf59-804b-8002-30d57d234746"><g class="fills" id="fills-6151ad18-bf59-804b-8002-30d57d234746"><rect rx="10" ry="10" x="62" y="61" transform="matrix(1.000000, 0.000000, 0.000000, 1.000000, 0.000000, 0.000000)" width="900" height="900"/></g><g id="strokes-6151ad18-bf59-804b-8002-30d57d234746" class="strokes"><g class="stroke-shape"><rect rx="10" ry="10" x="62" y="61" transform="matrix(1.000000, 0.000000, 0.000000, 1.000000, 0.000000, 0.000000)" width="900" height="900" style="fill: none; stroke-width: 50; stroke: rgb(173, 218, 120); stroke-opacity: 1;"/></g></g></g><g id="shape-6151ad18-bf59-804b-8002-30d5ea32accb"><g class="fills" id="fills-6151ad18-bf59-804b-8002-30d5ea32accb"><ellipse rx="400" ry="400" cx="512" cy="512" transform="matrix(1.000000, 0.000000, 0.000000, 1.000000, 0.000000, 0.000000)"/></g><g id="strokes-6151ad18-bf59-804b-8002-30d5ea32accb" class="strokes"><g class="inner-stroke-shape" transform="matrix(1.000000, 0.000000, 0.000000, 1.000000, 0.000000, 0.000000)"><defs><clipPath id="inner-stroke-rumext-id-3--0"><use href="#stroke-shape-rumext-id-3--0"/></clipPath><ellipse rx="400" ry="400" cx="512" cy="512" id="stroke-shape-rumext-id-3--0" style="fill: none; stroke-width: 100; stroke: rgb(173, 218, 120); stroke-opacity: 1;"/></defs><use href="#stroke-shape-rumext-id-3--0" clip-path="url('#inner-stroke-rumext-id-3--0')"/></g></g></g><g id="shape-6151ad18-bf59-804b-8002-30d75e5758e7"><g class="fills" id="fills-6151ad18-bf59-804b-8002-30d75e5758e7"><path rx="0" ry="0" d="M514.642,510.421C514.665,510.409,514.688,510.397,514.642,510.421ZM394.519,461.920C323.090,424.446,256.879,369.762,314.972,311.669C370.107,256.533,422.171,313.367,459.367,380.360C438.391,306.800,435.130,230.000,513.000,230.000C596.382,230.000,586.741,318.057,561.911,395.932C599.401,323.217,654.926,253.841,713.974,312.889C769.587,368.502,711.283,420.990,643.540,458.246C717.709,436.736,796.000,432.652,796.000,511.274C796.000,592.197,713.061,585.503,636.983,562.341C707.855,599.761,772.944,654.141,715.194,711.891C653.674,773.411,595.977,695.528,558.494,619.675C585.691,699.877,600.117,796.000,513.000,796.000C432.491,796.000,438.705,713.908,461.579,638.152C424.157,707.804,370.586,769.946,313.752,713.111C253.082,652.441,327.989,595.490,402.822,557.976C323.391,584.357,230.000,597.145,230.000,511.274C230.000,428.411,316.965,437.417,394.519,461.920ZM501.696,516.987C507.153,514.302,510.828,512.409,512.295,511.646C512.755,512.536,513.000,513.000,513.000,513.000C513.000,513.000,513.042,513.080,513.124,513.237C513.607,513.079,513.863,513.000,513.863,513.000C513.863,513.000,513.752,513.360,513.533,514.051C514.598,516.076,517.053,520.867,520.430,527.823C517.668,519.895,515.930,514.469,515.324,512.549C514.364,512.845,513.863,513.000,513.863,513.000C513.863,513.000,513.978,512.627,514.205,511.911C514.065,511.830,513.876,511.732,513.715,511.648C513.245,512.536,513.000,513.000,513.000,513.000C513.000,513.000,512.943,513.108,512.833,513.319C511.146,513.857,507.193,515.128,501.519,517.062M514.753,510.379C514.947,509.773,515.175,509.067,515.435,508.267C515.100,508.923,514.822,509.471,514.571,509.961C514.559,510.119,514.600,510.246,514.638,510.365" style="fill: rgb(97, 116, 139); fill-opacity: 1;"/></g></g><g id="shape-6151ad18-bf59-804b-8002-30d78bcd46bb"><g class="fills" id="fills-6151ad18-bf59-804b-8002-30d78bcd46bb"><ellipse rx="98.5" ry="98.5" cx="512.5" cy="513.5" transform="matrix(1.000000, 0.000000, 0.000000, 1.000000, 0.000000, 0.000000)" style="fill: rgb(255, 241, 243); fill-opacity: 1;"/></g></g></g></g><g id="strokes-6151ad18-bf59-804b-8002-30d55a431786" class="strokes"><g class="outer-stroke-shape"><defs><mask id="outer-stroke-rumext-id-1--0" x="-1.4142135623730951" y="-1.4142135623730951" width="1026.8284271247462" height="1026.8284271247462" maskUnits="userSpaceOnUse"><use href="#stroke-shape-rumext-id-1--0" style="fill: none; stroke: white; stroke-width: 2;"/><use href="#stroke-shape-rumext-id-1--0" style="fill: black; stroke: none;"/></mask><rect width="1024" height="1024" class="frame-background" x="0" id="stroke-shape-rumext-id-1--0" transform="matrix(1.000000, 0.000000, 0.000000, 1.000000, 0.000000, 0.000000)" ry="0" rx="0" y="0"/></defs><use href="#stroke-shape-rumext-id-1--0" mask="url(#outer-stroke-rumext-id-1--0)" style="stroke-width: 2; stroke: rgb(255, 255, 255); stroke-opacity: 1; fill: none;"/><use href="#stroke-shape-rumext-id-1--0" style="fill: none; stroke-width: 1; stroke: none; stroke-opacity: 1;"/></g></g></g></svg>