<svg viewBox="0 0 494 754" fill="none" xmlns="http://www.w3.org/2000/svg">
<path d="M425.853 601.718C400.419 672.222 310.048 708.772 220.399 676.431C130.75 644.09 84.5257 558.264 109.96 487.759C135.395 417.255 225.766 380.705 315.415 413.046C405.064 445.387 451.288 531.213 425.853 601.718Z" stroke="#ADDA78" stroke-width="32"/>
<path d="M390.755 589.765C370.268 646.556 298.792 673.94 230.208 649.198C161.624 624.457 124.092 557.748 144.579 500.957C165.067 444.166 236.543 416.782 305.127 441.524C373.711 466.266 411.243 532.974 390.755 589.765Z" stroke="#ADDA78" stroke-width="8"/>
<ellipse cx="268.138" cy="545.071" rx="77.4421" ry="65.6896" transform="rotate(19.8369 268.138 545.071)" fill="#ADDA78"/>
<rect x="87" y="86" width="32" height="445" rx="16" fill="#ADDA78"/>
<ellipse cx="103.5" cy="38" rx="38" ry="10.5" transform="rotate(-90 103.5 38)" fill="#ADDA78"/>
<ellipse cx="167" cy="105.5" rx="41" ry="13.5" fill="#ADDA78"/>
<ellipse cx="147.191" cy="59.9556" rx="37.7318" ry="13.4506" transform="rotate(-45 147.191 59.9556)" fill="#ADDA78"/>
<ellipse cx="150.535" cy="147.566" rx="36.2403" ry="12.6433" transform="rotate(45 150.535 147.566)" fill="#ADDA78"/>
<ellipse cx="40" cy="105.5" rx="40" ry="13.5" fill="#ADDA78"/>
<ellipse cx="62.736" cy="55.1492" rx="38.3349" ry="13.7434" transform="rotate(45 62.736 55.1492)" fill="#ADDA78"/>
<ellipse cx="51.5285" cy="150.624" rx="41.1678" ry="12.0402" transform="rotate(-45 51.5285 150.624)" fill="#ADDA78"/>
</svg>
