<svg width="1810" height="513" viewBox="0 0 1810 513" fill="none" xmlns="http://www.w3.org/2000/svg">
<line x1="266" y1="223" x2="266" y2="489" stroke="#ADDA78" stroke-width="48" stroke-linecap="round"/>
<line x1="186" y1="299" x2="186" y2="489" stroke="#ADDA78" stroke-width="48" stroke-linecap="round"/>
<line x1="26" y1="222" x2="26" y2="488" stroke="#ADDA78" stroke-width="48" stroke-linecap="round"/>
<line x1="106" y1="149" x2="106" y2="489" stroke="#ADDA78" stroke-width="48" stroke-linecap="round"/>
<ellipse cx="106" cy="67" rx="62" ry="67" fill="white"/>
<ellipse cx="266" cy="141" rx="62" ry="67" fill="white"/>
<circle cx="106" cy="67" r="26" fill="#61748B"/>
<circle cx="26" cy="140" r="26" fill="#61748B"/>
<circle cx="185" cy="217" r="26" fill="#61748B"/>
<circle cx="266" cy="141" r="26" fill="#61748B"/>
<path d="M387.014 259.629C412.414 259.629 432.338 264.814 446.785 275.184C461.466 285.323 468.806 301.224 468.806 322.885C468.806 336.02 465.777 347.427 459.718 357.106C453.66 366.784 445.154 374.389 434.202 379.92C423.483 385.45 410.783 388.561 396.102 389.253L391.209 371.969C408.22 372.43 423.483 375.426 436.998 380.957C450.514 386.487 461.233 394.207 469.156 404.116C477.079 414.025 481.04 425.778 481.04 439.374C481.04 451.818 478.71 462.533 474.049 471.52C469.389 480.277 463.097 487.536 455.174 493.297C447.251 498.828 438.28 502.976 428.26 505.741C418.24 508.276 407.87 509.543 397.151 509.543H322V259.629H387.014ZM394.005 369.204C407.987 369.204 418.123 365.402 424.415 357.797C430.707 349.962 433.852 340.514 433.852 329.453C433.852 316.318 429.774 306.754 421.619 300.763C413.463 294.771 402.51 291.776 388.762 291.776H355.905V369.204H394.005ZM395.403 478.434C404.724 478.434 413.23 477.051 420.919 474.286C428.842 471.52 435.018 467.257 439.445 461.496C444.106 455.735 446.436 448.476 446.436 439.719C446.436 430.041 443.756 422.436 438.396 416.906C433.27 411.375 426.629 407.457 418.473 405.153C410.317 402.618 401.928 401.351 393.306 401.351H355.905V478.434H395.403Z" fill="#ADDA78"/>
<path d="M530.033 242H562.54V509.543H530.033V242Z" fill="#ADDA78"/>
<path d="M606.2 436.608C606.2 422.321 609.578 409.416 616.336 397.894C623.327 386.372 632.881 377.27 644.998 370.587C657.116 363.904 670.864 360.563 686.244 360.563C702.09 360.563 715.955 363.904 727.839 370.587C739.723 377.27 748.928 386.372 755.453 397.894C761.977 409.416 765.24 422.321 765.24 436.608C765.24 450.896 761.977 463.916 755.453 475.668C748.928 487.19 739.607 496.293 727.489 502.976C715.605 509.659 701.74 513 685.894 513C670.515 513 656.766 509.889 644.649 503.667C632.764 497.215 623.327 488.343 616.336 477.051C609.578 465.529 606.2 452.048 606.2 436.608ZM638.707 436.954C638.707 446.172 640.804 454.583 644.998 462.188C649.193 469.562 654.785 475.438 661.776 479.816C669 484.195 676.923 486.384 685.545 486.384C694.633 486.384 702.672 484.195 709.663 479.816C716.887 475.438 722.479 469.562 726.441 462.188C730.402 454.583 732.383 446.172 732.383 436.954C732.383 427.736 730.402 419.44 726.441 412.066C722.479 404.462 716.887 398.47 709.663 394.092C702.672 389.483 694.633 387.179 685.545 387.179C676.69 387.179 668.65 389.483 661.427 394.092C654.436 398.701 648.843 404.807 644.649 412.412C640.687 419.786 638.707 427.967 638.707 436.954Z" fill="#ADDA78"/>
<path d="M796.671 436.608C796.671 422.321 800.05 409.416 806.807 397.894C813.798 386.372 823.352 377.27 835.47 370.587C847.587 363.904 861.336 360.563 876.715 360.563C892.561 360.563 906.426 363.904 918.31 370.587C930.195 377.27 939.399 386.372 945.924 397.894C952.449 409.416 955.711 422.321 955.711 436.608C955.711 450.896 952.449 463.916 945.924 475.668C939.399 487.19 930.078 496.293 917.961 502.976C906.076 509.659 892.211 513 876.366 513C860.986 513 847.237 509.889 835.12 503.667C823.236 497.215 813.798 488.343 806.807 477.051C800.05 465.529 796.671 452.048 796.671 436.608ZM829.178 436.954C829.178 446.172 831.275 454.583 835.47 462.188C839.664 469.562 845.257 475.438 852.247 479.816C859.471 484.195 867.394 486.384 876.016 486.384C885.104 486.384 893.144 484.195 900.134 479.816C907.358 475.438 912.951 469.562 916.912 462.188C920.874 454.583 922.854 446.172 922.854 436.954C922.854 427.736 920.874 419.44 916.912 412.066C912.951 404.462 907.358 398.47 900.134 394.092C893.144 389.483 885.104 387.179 876.016 387.179C867.161 387.179 859.122 389.483 851.898 394.092C844.907 398.701 839.315 404.807 835.12 412.412C831.159 419.786 829.178 427.967 829.178 436.954Z" fill="#ADDA78"/>
<path d="M1028.74 366.439L1031.53 398.585L1030.14 395.82C1035.5 384.989 1043.07 376.463 1052.86 370.241C1062.88 364.019 1074.29 360.908 1087.11 360.908C1095.27 360.908 1102.49 362.176 1108.78 364.71C1115.07 367.245 1120.2 370.932 1124.16 375.772C1128.36 380.381 1131.04 386.142 1132.2 393.055L1130.45 394.092C1136.05 383.722 1143.74 375.656 1153.52 369.895C1163.54 363.904 1174.03 360.908 1184.98 360.908C1199.2 360.908 1210.38 364.941 1218.54 373.006C1226.93 380.841 1231.24 391.096 1231.47 403.77V509.543H1198.96V415.177C1198.73 407.803 1196.87 401.696 1193.37 396.857C1190.11 391.787 1184.28 389.022 1175.89 388.561C1167.5 388.561 1159.93 391.096 1153.17 396.166C1146.65 401.236 1141.52 407.803 1137.79 415.869C1134.06 423.704 1132.08 432.23 1131.85 441.448V509.543H1099.34V415.177C1099.11 407.803 1097.13 401.696 1093.4 396.857C1089.91 391.787 1083.96 389.022 1075.58 388.561C1066.95 388.561 1059.38 391.096 1052.86 396.166C1046.33 401.236 1041.2 407.803 1037.48 415.869C1033.98 423.934 1032.23 432.576 1032.23 441.793V509.543H999.726V366.439H1028.74Z" fill="#ADDA78"/>
<path d="M1376.25 513C1362.96 513 1351.2 510.119 1340.94 504.358C1330.92 498.597 1322.88 491.338 1316.83 482.582L1320.67 472.557V509.543H1288.16V242H1320.32V399.277L1319.27 387.179C1325.1 379.344 1333.37 373.006 1344.09 368.167C1355.04 363.097 1367.16 360.563 1380.44 360.563C1393.49 360.563 1405.38 363.673 1416.09 369.895C1426.81 376.117 1435.32 384.874 1441.61 396.166C1448.14 407.227 1451.4 420.477 1451.4 435.917C1451.4 452.048 1447.9 465.875 1440.91 477.397C1434.15 488.919 1425.07 497.791 1413.65 504.013C1402.23 510.004 1389.76 513 1376.25 513ZM1369.61 485.693C1378.93 485.693 1387.32 483.503 1394.77 479.125C1402.23 474.747 1408.06 468.87 1412.25 461.496C1416.44 453.892 1418.54 445.25 1418.54 435.571C1418.54 426.354 1416.33 418.058 1411.9 410.684C1407.71 403.079 1401.88 397.088 1394.42 392.709C1387.2 388.331 1378.93 386.142 1369.61 386.142C1361.68 386.142 1354.34 387.639 1347.58 390.635C1340.83 393.631 1335.12 397.779 1330.46 403.079C1325.8 408.149 1322.53 414.14 1320.67 421.054V449.744C1322.53 456.657 1325.68 462.879 1330.11 468.409C1334.54 473.71 1340.13 477.973 1346.89 481.199C1353.64 484.195 1361.22 485.693 1369.61 485.693Z" fill="#ADDA78"/>
<path d="M1482.78 436.608C1482.78 422.321 1486.16 409.416 1492.91 397.894C1499.9 386.372 1509.46 377.27 1521.58 370.587C1533.69 363.904 1547.44 360.563 1562.82 360.563C1578.67 360.563 1592.53 363.904 1604.42 370.587C1616.3 377.27 1625.51 386.372 1632.03 397.894C1638.55 409.416 1641.82 422.321 1641.82 436.608C1641.82 450.896 1638.55 463.916 1632.03 475.668C1625.51 487.19 1616.18 496.293 1604.07 502.976C1592.18 509.659 1578.32 513 1562.47 513C1547.09 513 1533.34 509.889 1521.23 503.667C1509.34 497.215 1499.9 488.343 1492.91 477.051C1486.16 465.529 1482.78 452.048 1482.78 436.608ZM1515.28 436.954C1515.28 446.172 1517.38 454.583 1521.58 462.188C1525.77 469.562 1531.36 475.438 1538.35 479.816C1545.58 484.195 1553.5 486.384 1562.12 486.384C1571.21 486.384 1579.25 484.195 1586.24 479.816C1593.46 475.438 1599.06 469.562 1603.02 462.188C1606.98 454.583 1608.96 446.172 1608.96 436.954C1608.96 427.736 1606.98 419.44 1603.02 412.066C1599.06 404.462 1593.46 398.47 1586.24 394.092C1579.25 389.483 1571.21 387.179 1562.12 387.179C1553.27 387.179 1545.23 389.483 1538 394.092C1531.01 398.701 1525.42 404.807 1521.23 412.412C1517.27 419.786 1515.28 427.967 1515.28 436.954Z" fill="#ADDA78"/>
<path d="M1736.95 419.671L1771.55 366.439H1804.41L1748.83 443.176L1736.95 419.671ZM1810 509.543H1770.85L1660.75 366.439H1700.94L1810 509.543ZM1733.45 456.311L1695.35 509.543H1662.49L1717.72 434.88L1733.45 456.311Z" fill="#ADDA78"/>
</svg>
