<svg width="1837" height="540" viewBox="0 0 1837 540" fill="none" xmlns="http://www.w3.org/2000/svg">
<rect x="18" y="243.181" width="278" height="278" stroke="#61748B" stroke-width="32"/>
<path d="M6 242.373C113.106 206.738 173.344 178.854 281 121.181" stroke="#61748B" stroke-width="32"/>
<circle cx="157.5" cy="382.681" r="86.5" stroke="#ADDA78" stroke-width="32"/>
<path d="M175.5 382.181C175.5 393.551 167.171 402.681 157 402.681C146.829 402.681 138.5 393.551 138.5 382.181C138.5 370.811 146.829 361.681 157 361.681C167.171 361.681 175.5 370.811 175.5 382.181Z" fill="#ADDA78" stroke="#403838"/>
<path d="M312 86.9208C355.357 144.957 370.32 180.605 368.258 253.712" stroke="#ADDA78" stroke-width="32"/>
<path d="M369.315 47.706C425.644 118.453 444.468 162.367 438.801 253.718" stroke="#ADDA78" stroke-width="32"/>
<path d="M426.122 9.83636C487.488 95.5174 509.133 147.795 508.486 254.029" stroke="#ADDA78" stroke-width="32"/>
<path d="M414.014 286.629C439.414 286.629 459.338 291.814 473.785 302.184C488.466 312.323 495.806 328.224 495.806 349.885C495.806 363.02 492.777 374.427 486.718 384.106C480.66 393.784 472.154 401.389 461.202 406.92C450.483 412.45 437.783 415.561 423.102 416.253L418.209 398.969C435.22 399.43 450.483 402.426 463.998 407.957C477.514 413.487 488.233 421.207 496.156 431.116C504.079 441.025 508.04 452.778 508.04 466.374C508.04 478.818 505.71 489.533 501.049 498.52C496.389 507.277 490.097 514.536 482.174 520.297C474.251 525.828 465.28 529.976 455.26 532.741C445.24 535.276 434.87 536.543 424.151 536.543H349V286.629H414.014ZM421.005 396.204C434.987 396.204 445.123 392.402 451.415 384.797C457.707 376.962 460.852 367.514 460.852 356.453C460.852 343.318 456.774 333.754 448.619 327.763C440.463 321.771 429.51 318.776 415.762 318.776H382.905V396.204H421.005ZM422.403 505.434C431.724 505.434 440.23 504.051 447.919 501.286C455.842 498.52 462.018 494.257 466.445 488.496C471.106 482.735 473.436 475.476 473.436 466.719C473.436 457.041 470.756 449.436 465.396 443.906C460.27 438.375 453.629 434.457 445.473 432.153C437.317 429.618 428.928 428.351 420.306 428.351H382.905V505.434H422.403Z" fill="#ADDA78"/>
<path d="M557.033 269H589.54V536.543H557.033V269Z" fill="#ADDA78"/>
<path d="M633.2 463.608C633.2 449.321 636.578 436.416 643.336 424.894C650.327 413.372 659.881 404.27 671.998 397.587C684.116 390.904 697.864 387.563 713.244 387.563C729.09 387.563 742.955 390.904 754.839 397.587C766.723 404.27 775.928 413.372 782.453 424.894C788.977 436.416 792.24 449.321 792.24 463.608C792.24 477.896 788.977 490.916 782.453 502.668C775.928 514.19 766.607 523.293 754.489 529.976C742.605 536.659 728.74 540 712.894 540C697.515 540 683.766 536.889 671.649 530.667C659.764 524.215 650.327 515.343 643.336 504.051C636.578 492.529 633.2 479.048 633.2 463.608ZM665.707 463.954C665.707 473.172 667.804 481.583 671.998 489.188C676.193 496.562 681.785 502.438 688.776 506.816C696 511.195 703.923 513.384 712.545 513.384C721.633 513.384 729.672 511.195 736.663 506.816C743.887 502.438 749.479 496.562 753.441 489.188C757.402 481.583 759.383 473.172 759.383 463.954C759.383 454.736 757.402 446.44 753.441 439.066C749.479 431.462 743.887 425.47 736.663 421.092C729.672 416.483 721.633 414.179 712.545 414.179C703.69 414.179 695.65 416.483 688.427 421.092C681.436 425.701 675.843 431.807 671.649 439.412C667.687 446.786 665.707 454.967 665.707 463.954Z" fill="#ADDA78"/>
<path d="M823.671 463.608C823.671 449.321 827.05 436.416 833.807 424.894C840.798 413.372 850.352 404.27 862.47 397.587C874.587 390.904 888.336 387.563 903.715 387.563C919.561 387.563 933.426 390.904 945.31 397.587C957.195 404.27 966.399 413.372 972.924 424.894C979.449 436.416 982.711 449.321 982.711 463.608C982.711 477.896 979.449 490.916 972.924 502.668C966.399 514.19 957.078 523.293 944.961 529.976C933.076 536.659 919.211 540 903.366 540C887.986 540 874.237 536.889 862.12 530.667C850.236 524.215 840.798 515.343 833.807 504.051C827.05 492.529 823.671 479.048 823.671 463.608ZM856.178 463.954C856.178 473.172 858.275 481.583 862.47 489.188C866.664 496.562 872.257 502.438 879.247 506.816C886.471 511.195 894.394 513.384 903.016 513.384C912.104 513.384 920.144 511.195 927.134 506.816C934.358 502.438 939.951 496.562 943.912 489.188C947.874 481.583 949.854 473.172 949.854 463.954C949.854 454.736 947.874 446.44 943.912 439.066C939.951 431.462 934.358 425.47 927.134 421.092C920.144 416.483 912.104 414.179 903.016 414.179C894.161 414.179 886.122 416.483 878.898 421.092C871.907 425.701 866.315 431.807 862.12 439.412C858.159 446.786 856.178 454.967 856.178 463.954Z" fill="#ADDA78"/>
<path d="M1055.74 393.439L1058.53 425.585L1057.14 422.82C1062.5 411.989 1070.07 403.463 1079.86 397.241C1089.88 391.019 1101.29 387.908 1114.11 387.908C1122.27 387.908 1129.49 389.176 1135.78 391.71C1142.07 394.245 1147.2 397.932 1151.16 402.772C1155.36 407.381 1158.04 413.142 1159.2 420.055L1157.45 421.092C1163.05 410.722 1170.74 402.656 1180.52 396.895C1190.54 390.904 1201.03 387.908 1211.98 387.908C1226.2 387.908 1237.38 391.941 1245.54 400.006C1253.93 407.841 1258.24 418.096 1258.47 430.77V536.543H1225.96V442.177C1225.73 434.803 1223.87 428.696 1220.37 423.857C1217.11 418.787 1211.28 416.022 1202.89 415.561C1194.5 415.561 1186.93 418.096 1180.17 423.166C1173.65 428.236 1168.52 434.803 1164.79 442.869C1161.06 450.704 1159.08 459.23 1158.85 468.448V536.543H1126.34V442.177C1126.11 434.803 1124.13 428.696 1120.4 423.857C1116.91 418.787 1110.96 416.022 1102.58 415.561C1093.95 415.561 1086.38 418.096 1079.86 423.166C1073.33 428.236 1068.2 434.803 1064.48 442.869C1060.98 450.934 1059.23 459.576 1059.23 468.793V536.543H1026.73V393.439H1055.74Z" fill="#ADDA78"/>
<path d="M1403.25 540C1389.96 540 1378.2 537.119 1367.94 531.358C1357.92 525.597 1349.88 518.338 1343.83 509.582L1347.67 499.557V536.543H1315.16V269H1347.32V426.277L1346.27 414.179C1352.1 406.344 1360.37 400.006 1371.09 395.167C1382.04 390.097 1394.16 387.563 1407.44 387.563C1420.49 387.563 1432.38 390.673 1443.09 396.895C1453.81 403.117 1462.32 411.874 1468.61 423.166C1475.14 434.227 1478.4 447.477 1478.4 462.917C1478.4 479.048 1474.9 492.875 1467.91 504.397C1461.15 515.919 1452.07 524.791 1440.65 531.013C1429.23 537.004 1416.76 540 1403.25 540ZM1396.61 512.693C1405.93 512.693 1414.32 510.503 1421.77 506.125C1429.23 501.747 1435.06 495.87 1439.25 488.496C1443.44 480.892 1445.54 472.25 1445.54 462.571C1445.54 453.354 1443.33 445.058 1438.9 437.684C1434.71 430.079 1428.88 424.088 1421.42 419.709C1414.2 415.331 1405.93 413.142 1396.61 413.142C1388.68 413.142 1381.34 414.639 1374.58 417.635C1367.83 420.631 1362.12 424.779 1357.46 430.079C1352.8 435.149 1349.53 441.14 1347.67 448.054V476.744C1349.53 483.657 1352.68 489.879 1357.11 495.409C1361.54 500.71 1367.13 504.973 1373.89 508.199C1380.64 511.195 1388.22 512.693 1396.61 512.693Z" fill="#ADDA78"/>
<path d="M1509.78 463.608C1509.78 449.321 1513.16 436.416 1519.91 424.894C1526.9 413.372 1536.46 404.27 1548.58 397.587C1560.69 390.904 1574.44 387.563 1589.82 387.563C1605.67 387.563 1619.53 390.904 1631.42 397.587C1643.3 404.27 1652.51 413.372 1659.03 424.894C1665.55 436.416 1668.82 449.321 1668.82 463.608C1668.82 477.896 1665.55 490.916 1659.03 502.668C1652.51 514.19 1643.18 523.293 1631.07 529.976C1619.18 536.659 1605.32 540 1589.47 540C1574.09 540 1560.34 536.889 1548.23 530.667C1536.34 524.215 1526.9 515.343 1519.91 504.051C1513.16 492.529 1509.78 479.048 1509.78 463.608ZM1542.28 463.954C1542.28 473.172 1544.38 481.583 1548.58 489.188C1552.77 496.562 1558.36 502.438 1565.35 506.816C1572.58 511.195 1580.5 513.384 1589.12 513.384C1598.21 513.384 1606.25 511.195 1613.24 506.816C1620.46 502.438 1626.06 496.562 1630.02 489.188C1633.98 481.583 1635.96 473.172 1635.96 463.954C1635.96 454.736 1633.98 446.44 1630.02 439.066C1626.06 431.462 1620.46 425.47 1613.24 421.092C1606.25 416.483 1598.21 414.179 1589.12 414.179C1580.27 414.179 1572.23 416.483 1565 421.092C1558.01 425.701 1552.42 431.807 1548.23 439.412C1544.27 446.786 1542.28 454.967 1542.28 463.954Z" fill="#ADDA78"/>
<path d="M1763.95 446.671L1798.55 393.439H1831.41L1775.83 470.176L1763.95 446.671ZM1837 536.543H1797.85L1687.75 393.439H1727.94L1837 536.543ZM1760.45 483.311L1722.35 536.543H1689.49L1744.72 461.88L1760.45 483.311Z" fill="#ADDA78"/>
</svg>
