<svg xmlns:xlink="http://www.w3.org/1999/xlink" width="481.84" xmlns="http://www.w3.org/2000/svg" height="429.411" id="screenshot-a1c5b519-8e02-8075-8002-366703b00b29" viewBox="0 0 481.84 429.411" style="-webkit-print-color-adjust: exact;" fill="none" version="1.1"><g id="shape-a1c5b519-8e02-8075-8002-366703b00b29" rx="0" ry="0" style="fill: rgb(0, 0, 0);"><g id="shape-a1c5b519-8e02-8075-8002-366703b389d9"><g class="fills" id="fills-a1c5b519-8e02-8075-8002-366703b389d9"><path fill="var(--ci-primary-color, currentColor)" class="ci-primary" rx="0" ry="0" d="M437.500,37.490C413.484,13.474,380.907,-0.013,346.943,0.000C312.978,0.013,280.412,13.524,256.413,37.558L240.902,53.258L225.520,37.592L225.420,37.492C201.415,13.487,168.858,0.002,134.910,0.002C100.962,0.002,68.405,13.487,44.400,37.492L37.490,44.402C-12.497,94.389,-12.497,175.434,37.490,225.421L219.863,407.792L240.458,429.370L240.949,428.878L241.482,429.411L260.778,409.052L444.410,225.418C494.316,175.398,494.316,94.420,444.410,44.399L437.500,37.490Z" style="fill: rgb(255, 255, 255); fill-opacity: 1;"/></g></g></g></svg>