<svg xmlns:xlink="http://www.w3.org/1999/xlink" width="481.84" xmlns="http://www.w3.org/2000/svg" height="429.411" id="screenshot-a1c5b519-8e02-8075-8002-366703b389d9" viewBox="-4978.378 2161.522 481.84 429.411" style="-webkit-print-color-adjust: exact;" fill="none" version="1.1"><g id="shape-a1c5b519-8e02-8075-8002-366703b389d9"><g class="fills" id="fills-a1c5b519-8e02-8075-8002-366703b389d9"><path fill="var(--ci-primary-color, currentColor)" class="ci-primary" rx="0" ry="0" d="M-4540.878,2199.012C-4564.894,2174.996,-4597.471,2161.509,-4631.436,2161.522C-4665.400,2161.535,-4697.967,2175.046,-4721.965,2199.080L-4737.476,2214.780L-4752.858,2199.114L-4752.958,2199.014C-4776.963,2175.009,-4809.520,2161.523,-4843.468,2161.523C-4877.416,2161.523,-4909.973,2175.009,-4933.978,2199.014L-4940.888,2205.924C-4990.875,2255.911,-4990.875,2336.956,-4940.888,2386.943L-4758.515,2569.314L-4737.920,2590.892L-4737.429,2590.400L-4736.896,2590.933L-4717.600,2570.574L-4533.968,2386.940C-4484.062,2336.919,-4484.062,2255.942,-4533.968,2205.921L-4540.878,2199.012ZM-4556.600,2364.313L-4737.429,2545.146L-4918.262,2364.313C-4955.752,2326.823,-4955.752,2266.039,-4918.262,2228.549L-4911.351,2221.639C-4873.881,2184.169,-4813.137,2184.146,-4775.638,2221.588L-4737.545,2260.375L-4699.271,2221.639C-4681.267,2203.635,-4656.849,2193.521,-4631.389,2193.521C-4605.928,2193.521,-4581.510,2203.635,-4563.506,2221.639L-4556.596,2228.548C-4519.167,2266.065,-4519.169,2326.799,-4556.600,2364.313ZL-4556.600,2364.313Z" style="fill: rgb(255, 255, 255); fill-opacity: 1;"/></g></g></svg>