<svg width="30" height="29" viewBox="0 0 30 29" fill="none" xmlns="http://www.w3.org/2000/svg">
<path fill-rule="evenodd" clip-rule="evenodd" d="M28.1916 15.5394C29.08 15.5394 29.5273 14.4674 28.9024 13.8359L15.7106 0.507485C15.3193 0.112088 14.6805 0.112088 14.2891 0.507485L1.09741 13.8359C0.47245 14.4674 0.919733 15.5394 1.80815 15.5394H1.99989C2.55217 15.5394 2.99989 15.9871 2.99989 16.5394V27.7894C2.99989 28.3417 3.4476 28.7894 3.99989 28.7894H9.99981C10.5521 28.7894 10.9998 28.3417 10.9998 27.7894V22.7894C10.9998 22.2371 11.4475 21.7894 11.9998 21.7894H17.9998C18.5521 21.7894 18.9998 22.2371 18.9998 22.7894V27.7894C18.9998 28.3417 19.4475 28.7894 19.9998 28.7894H25.9999C26.5522 28.7894 26.9999 28.3417 26.9999 27.7894V16.5394C26.9999 15.9871 27.4476 15.5394 27.9999 15.5394H28.1916Z" fill="#61748B"/>
</svg>
