<svg width="30" height="25" viewBox="0 0 30 25" fill="none" xmlns="http://www.w3.org/2000/svg">
<path d="M7.29289 23.914C7.68342 24.3045 8.31658 24.3045 8.70711 23.914L15.0711 17.55C15.4616 17.1595 15.4616 16.5264 15.0711 16.1358C14.6805 15.7453 14.0474 15.7453 13.6569 16.1358L8 21.7927L2.34315 16.1358C1.95262 15.7453 1.31946 15.7453 0.928932 16.1358C0.538408 16.5264 0.538408 17.1595 0.928932 17.55L7.29289 23.914ZM22.7071 1.086C22.3166 0.695472 21.6834 0.695472 21.2929 1.086L14.9289 7.44996C14.5384 7.84048 14.5384 8.47365 14.9289 8.86417C15.3195 9.2547 15.9526 9.2547 16.3431 8.86417L22 3.20732L27.6569 8.86417C28.0474 9.2547 28.6805 9.2547 29.0711 8.86417C29.4616 8.47365 29.4616 7.84048 29.0711 7.44996L22.7071 1.086ZM7 1V23.2069H9V1H7ZM23 24V1.7931H21V24H23Z" fill="#61748B"/>
</svg>
